<?xml version="1.0" encoding="iso-8859-1"?>
<!-- Generator: Adobe Illustrator 19.0.0, SVG Export Plug-In . SVG Version: 6.00 Build 0)  -->
<svg version="1.1" id="Layer_1" xmlns="http://www.w3.org/2000/svg" xmlns:xlink="http://www.w3.org/1999/xlink" x="0px" y="0px"
	 viewBox="0 0 512 512" style="enable-background:new 0 0 512 512;" xml:space="preserve">
<path style="fill:#F73974;" d="M512,256.006C512,397.402,397.394,512.004,256.004,512C114.606,512.004,0,397.402,0,256.006
	C-0.007,114.61,114.606,0,256.004,0C397.394,0,512,114.614,512,256.006z"/>
<path style="fill:#F73974;" d="M510.219,285.803c-0.011-0.007-0.016-0.019-0.016-0.019
	c-0.474-0.666-157.836-158.029-158.494-158.492c-1.253-1.785-3.226-3.025-5.574-3.025H210.586c-0.338-0.477-0.81-0.801-1.247-1.172
	l-28.519-28.61c-0.38-0.603-0.979-0.972-1.509-1.42l-0.158-0.25c-1.266-2.004-3.481-3.216-5.851-3.216H96.533
	c-3.833,0-6.933,3.102-6.933,6.933V325.13c0,0.569,0.067,1.131,0.21,1.679c1.582,6.334,4.884,11.731,9.285,15.997
	c0.494,0.553,167.839,167.824,168.401,168.374c0.162,0.183,0.345,0.343,0.516,0.516
	C393.852,505.887,495.903,409.243,510.219,285.803z"/>
<g>
	<path style="fill:#F4F6F9;" d="M332.267,242.133c-49.698,0-90.133,40.435-90.133,90.133s40.435,90.133,90.133,90.133
		s90.133-40.435,90.133-90.133S381.965,242.133,332.267,242.133z M332.267,408.533c-42.053,0-76.267-34.213-76.267-76.267
		S290.213,256,332.267,256s76.267,34.213,76.267,76.267S374.32,408.533,332.267,408.533z"/>
	<path style="fill:#F4F6F9;" d="M357.617,334.921L339.2,353.347v-58.902c0-3.833-3.101-6.933-6.933-6.933s-6.933,3.101-6.933,6.933
		v58.902l-18.417-18.427c-2.708-2.708-7.095-2.708-9.804,0c-2.708,2.708-2.708,7.095,0,9.804l30.243,30.257
		c0.636,0.638,1.396,1.149,2.241,1.502c0.838,0.35,1.743,0.539,2.67,0.539c0.927,0,1.831-0.189,2.67-0.539
		c0.845-0.352,1.605-0.863,2.241-1.502l30.243-30.257c2.708-2.708,2.708-7.095,0-9.804
		C364.713,332.212,360.325,332.212,357.617,334.921z"/>
	<path style="fill:#F4F6F9;" d="M207.467,339.2h-54.803c2.755-3.602,4.896-7.73,6.06-12.39c0.142-0.548,0.21-1.11,0.21-1.679V172.8
		h208v41.6c0,3.833,3.101,6.933,6.933,6.933s6.933-3.101,6.933-6.933v-48.533c0-3.833-3.101-6.933-6.933-6.933h-20.8V131.2
		c0-3.833-3.101-6.933-6.933-6.933H199.125l-19.974-31.451c-1.266-2.004-3.481-3.216-5.85-3.216H96.533
		c-3.833,0-6.933,3.101-6.933,6.933v228.597c0,0.569,0.067,1.131,0.21,1.679c3.762,15.061,16.849,25.25,32.809,25.924
		c0.543,0.135,1.063,0.333,1.648,0.333h83.2c3.833,0,6.933-3.101,6.933-6.933S211.299,339.2,207.467,339.2z M103.467,324.223
		V103.467h66.022l19.974,31.451c1.266,2.004,3.481,3.216,5.85,3.216H339.2v20.8H152c-3.833,0-6.933,3.101-6.933,6.933v158.356
		c-3.129,10.887-13.082,14.774-20.8,14.774S106.595,335.11,103.467,324.223z"/>
</g>
<g>
</g>
<g>
</g>
<g>
</g>
<g>
</g>
<g>
</g>
<g>
</g>
<g>
</g>
<g>
</g>
<g>
</g>
<g>
</g>
<g>
</g>
<g>
</g>
<g>
</g>
<g>
</g>
<g>
</g>
</svg>
