<svg width="184" height="232" viewBox="0 0 184 232" fill="none" xmlns="http://www.w3.org/2000/svg">
<g clip-path="url(#clip0_306_3)">
<path d="M280 0H0V280H280V0Z" />
<path d="M183.876 57.364C183.74 53.8719 182.802 50.4578 181.133 47.3854C179.465 44.3129 177.112 41.6644 174.255 39.6443C167.872 34.6897 160.291 31.5071 152.28 30.419C144.268 29.331 136.11 30.3762 128.634 33.4486L92.695 51.2921V1.35471C92.695 0.115608 91.95 -0.318093 90.771 0.239607L11.3215 39.6443C8.31727 40.8931 5.69337 42.9059 3.71127 45.4823C1.72917 48.0587 0.458075 51.1086 0.024675 54.3281C-0.008225 54.9266 -0.008225 55.5265 0.024675 56.1249V172.047C0.304575 175.393 1.30997 178.639 2.97117 181.56C4.63237 184.481 6.90987 187.006 9.64567 188.961C16.0348 193.927 23.627 197.116 31.6509 198.204C39.6747 199.292 47.8441 198.241 55.329 195.156L83.881 181.03V230.038C83.881 231.153 84.564 232.702 86.674 231.649L172.641 189.085C175.921 187.7 178.734 185.406 180.747 182.474C182.761 179.542 183.89 176.095 184 172.542V57.3019L183.876 57.364ZM15.2939 47.5128L83.571 13.5603V55.6292L51.0462 71.738C45.092 74.0268 38.6485 74.7502 32.3337 73.8389C26.0189 72.9276 20.0446 70.4121 14.9836 66.5337C13.0853 65.2939 11.5247 63.6036 10.4414 61.6141C9.35817 59.6245 8.78618 57.3979 8.77658 55.1336C9.11628 53.4118 9.89438 51.8062 11.0359 50.4715C12.1773 49.1368 13.6436 48.1179 15.2939 47.5128ZM83.571 107.673V171.427L51.0462 187.598C45.0784 189.889 38.62 190.609 32.293 189.686C25.966 188.764 19.9834 186.231 14.9215 182.331C13.2292 181.154 11.8028 179.636 10.7337 177.876C9.66467 176.115 8.97678 174.15 8.71448 172.108V72.9771L9.39738 73.5967C15.7865 78.563 23.3787 81.752 31.4025 82.84C39.4264 83.928 47.5958 82.877 55.081 79.792L132.544 41.3171C138.498 39.0284 144.942 38.3049 151.256 39.2163C157.571 40.1276 163.546 42.6431 168.607 46.5215C170.497 47.7692 172.052 49.4613 173.134 51.449C174.216 53.4368 174.793 55.6593 174.814 57.9216C174.502 59.6168 173.771 61.2076 172.687 62.5492C171.603 63.8909 170.2 64.9412 168.607 65.6044L83.571 107.673ZM174.814 172.604C174.699 174.47 174.054 176.265 172.955 177.779C171.855 179.293 170.347 180.464 168.607 181.154L92.757 218.762V176.631L132.668 156.867C138.622 154.578 145.066 153.855 151.381 154.766C157.696 155.677 163.67 158.193 168.731 162.071C170.452 163.275 171.896 164.832 172.967 166.638C174.037 168.444 174.709 170.456 174.938 172.542L174.814 172.604ZM174.814 155.752L174.069 155.194C167.686 150.24 160.105 147.057 152.093 145.969C144.082 144.881 135.924 145.926 128.447 148.998L92.509 166.842V113.187L172.331 73.5967C173.2 73.163 174.007 72.6674 174.814 72.1718V155.752Z" fill="#2A2B2D"/>
</g>
<defs>
<clipPath id="clip0_306_3">
<rect width="184" height="232" fill="white"/>
</clipPath>
</defs>
</svg>
